#!OML:ASF X:\für Bonn\!DataBase\2005_08_10_Bjorn_Final\c3d\bjorn.ASF
:FULLY-SPECIFIED
:DEGREES
547
root 0.424597 1.71239 18.3279 -444.686 -178.098 -714.592
lowerback -5.84971 3.07611 -3.49629
upperback 2.64009 4.34792 -3.79921
thorax 6.07265 1.96262 -1.54313
lowerneck -7.46349 -5.41143 -7.36206
upperneck 7.3771 -7.05159 5.87392
head 3.88759 -3.46586 2.56508
rclavicle -4.29375e-014 9.74045e-015
rhumerus -201.654 -222.299 110.461
rradius 102.38
rwrist -10.9759
rhand -12.5083 12.9217
rfingers 7.12502
rthumb 13.5671 -16.6163
lclavicle -4.29375e-014 9.74045e-015
lhumerus 2.34899 -61.7956 39.7349
lradius 89.1453
lwrist -2.50957
lhand -26.1137 -377.397
lfingers 7.12502
lthumb 0.435947 12.5821
rfemur -17.3868 -15.4629 14.72
rtibia 32.4273
rfoot 14.1601 7.67928
rtoes 0.0396345
lfemur 168.406 180.72 167.988
ltibia 21.0057
lfoot 2.36705 3.99681
ltoes 12.852
548
root 0.443687 1.71518 18.325 -444.613 -178.045 -714.861
lowerback -5.9751 3.14644 -3.39696
upperback 2.46109 4.4315 -3.90632
thorax 5.97217 2.00957 -1.69808
lowerneck -7.93265 -5.52114 -7.32606
upperneck 7.18272 -7.21241 6.25372
head 3.92933 -3.52388 2.65368
rclavicle 4.45278e-014 -2.8625e-014
rhumerus -202.885 -221.68 110.335
rradius 103.983
rwrist -10.8634
rhand -12.7572 12.8793
rfingers 7.12502
rthumb 13.3272 -16.6745
lclavicle 4.45278e-014 -2.8625e-014
lhumerus 2.15333 -61.9027 39.2864
lradius 89.924
lwrist -1.85943
lhand -26.0804 -377.406
lfingers 7.12502
lthumb 0.468085 12.5734
rfemur -17.4754 -15.5307 14.742
rtibia 32.3823
rfoot 14.4082 7.7472
rtoes 0.774135
lfemur 168.4 180.94 167.973
ltibia 21.0144
lfoot 2.09133 4.19497
ltoes 12.789
549
root 0.461787 1.71753 18.3209 -444.521 -177.994 -715.117
lowerback -6.07408 3.22493 -3.29006
upperback 2.25471 4.52145 -4.00909
thorax 5.82868 2.06016 -1.85382
lowerneck -8.43817 -5.65001 -7.28874
upperneck 7.10664 -7.39543 6.55937
head 4.01234 -3.59521 2.71517
rclavicle 6.52014e-014 -5.88403e-014
rhumerus -204.206 -221.052 110.161
rradius 105.572
rwrist -10.7848
rhand -13.0731 12.8888
rfingers 7.12502
rthumb 13.0227 -16.6847
lclavicle 6.52014e-014 -5.88403e-014
lhumerus 1.92405 -62.0218 38.9098
lradius 90.7265
lwrist -1.21303
lhand -25.9454 -377.423
lfingers 7.12502
lthumb 0.598455 12.5563
rfemur -17.6037 -15.6267 14.77
rtibia 32.3466
rfoot 14.6396 7.85893
rtoes 1.28474
lfemur 168.374 181.157 167.96
ltibia 21.0135
lfoot 1.82927 4.37944
ltoes 12.8104
550
root 0.481106 1.71892 18.3172 -444.42 -177.925 -715.371
lowerback -6.205 3.29615 -3.23386
upperback 2.08776 4.60857 -4.09455
thorax 5.7403 2.10562 -1.9613
lowerneck -9.06722 -5.79124 -7.23729
upperneck 7.11049 -7.58532 6.7925
head 4.13765 -3.66919 2.74702
rclavicle -2.70347e-014 4.05521e-014
rhumerus -205.44 -220.406 110.098
rradius 107.145
rwrist -10.7351
rhand -13.4036 12.9664
rfingers 7.12502
rthumb 12.7042 -16.6272
lclavicle -2.70347e-014 4.05521e-014
lhumerus 1.74682 -62.0549 38.5564
lradius 91.4927
lwrist -0.575664
lhand -25.793 -377.481
lfingers 7.12502
lthumb 0.745634 12.4975
rfemur -17.7615 -15.6632 14.788
rtibia 32.3188
rfoot 14.749 7.9867
rtoes 1.25274
lfemur 168.337 181.345 167.931
ltibia 21.0013
lfoot 1.62931 4.55364
ltoes 12.7609
551
root 0.500068 1.71956 18.313 -444.319 -177.872 -715.595
lowerback -6.32982 3.35001 -3.16413
upperback 1.93803 4.67272 -4.16014
thorax 5.666 2.14038 -2.05786
lowerneck -9.70711 -5.93667 -7.26818
upperneck 7.14252 -7.77553 7.05708
head 4.2783 -3.74276 2.80022
rclavicle 1.31993e-013 -1.01579e-013
rhumerus -206.571 -219.769 110.104
rradius 108.677
rwrist -10.7133
rhand -13.5544 12.9068
rfingers 7.12502
rthumb 12.5588 -16.6957
lclavicle 1.31993e-013 -1.01579e-013
lhumerus 1.54339 -62.0476 38.2703
lradius 92.226
lwrist 0.0369339
lhand -25.7119 -377.592
lfingers 7.12502
lthumb 0.82404 12.3863
rfemur -17.9327 -15.7278 14.8276
rtibia 32.2977
rfoot 14.8256 8.13245
rtoes 1.29878
lfemur 168.288 181.442 167.92
ltibia 20.9897
lfoot 1.52824 4.67173
ltoes 12.9039
552
root 0.519603 1.71997 18.3082 -444.217 -177.801 -715.814
lowerback -6.44613 3.40757 -3.12781
upperback 1.7881 4.74252 -4.22858
thorax 5.5846 2.17601 -2.13872
lowerneck -10.3104 -6.07187 -7.28571
upperneck 7.17083 -7.95834 7.32192
head 4.4114 -3.81256 2.85235
rclavicle -4.77083e-014 5.56597e-015
rhumerus -207.708 -219.148 110.114
rradius 110.209
rwrist -10.7181
rhand -13.5202 12.6402
rfingers 7.12502
rthumb 12.5917 -16.9603
lclavicle -4.77083e-014 5.56597e-015
lhumerus 1.32642 -62.0435 38.0206
lradius 92.9194
lwrist 0.484068
lhand -25.7298 -377.768
lfingers 7.12502
lthumb 0.806667 12.2105
rfemur -18.1122 -15.7005 14.8565
rtibia 32.2827
rfoot 14.8056 8.27054
rtoes 1.0283
lfemur 168.24 181.551 167.897
ltibia 20.9708
lfoot 1.45174 4.79123
ltoes 13.1219
553
root 0.538392 1.72063 18.3036 -444.105 -177.734 -716.033
lowerback -6.59399 3.45774 -3.10093
upperback 1.66174 4.80669 -4.27802
thorax 5.54364 2.20801 -2.1928
lowerneck -10.9332 -6.21947 -7.32124
upperneck 7.21938 -8.15309 7.56412
head 4.55516 -3.88818 2.89797
rclavicle 2.54444e-014 -1.76918e-014
rhumerus -208.753 -218.532 110.174
rradius 111.68
rwrist -10.7759
rhand -13.5506 12.4906
rfingers 7.12502
rthumb 12.5624 -17.1117
lclavicle 2.54444e-014 -1.76918e-014
lhumerus 1.06065 -61.9965 37.8668
lradius 93.5751
lwrist 0.709945
lhand -25.8874 -377.887
lfingers 7.12502
lthumb 0.654519 12.0914
rfemur -18.3121 -15.7087 14.8895
rtibia 32.2657
rfoot 14.7647 8.45631
rtoes 0.524681
lfemur 168.17 181.544 167.868
ltibia 20.9634
lfoot 1.44577 4.82259
ltoes 13.2746
554
root 0.557569 1.72121 18.2985 -443.987 -177.68 -716.235
lowerback -6.73704 3.50287 -3.05801
upperback 1.52255 4.86188 -4.32692
thorax 5.48767 2.23645 -2.25661
lowerneck -11.5212 -6.37466 -7.40087
upperneck 7.33912 -8.36329 7.8397
head 4.72033 -3.97058 2.95894
rclavicle -7.15625e-014 6.55989e-014
rhumerus -209.773 -217.933 110.236
rradius 113.12
rwrist -10.9064
rhand -13.5754 12.4053
rfingers 7.12502
rthumb 12.5385 -17.1984
lclavicle -7.15625e-014 6.55989e-014
lhumerus 0.736489 -61.9638 37.8096
lradius 94.1991
lwrist 0.897377
lhand -26.0959 -377.98
lfingers 7.12502
lthumb 0.453094 11.999
rfemur -18.5227 -15.6961 14.9434
rtibia 32.2533
rfoot 14.6798 8.61389
rtoes 0.042797
lfemur 168.086 181.486 167.861
ltibia 20.9587
lfoot 1.50683 4.81856
ltoes 13.4444
555
root 0.575662 1.72185 18.2933 -443.868 -177.627 -716.444
lowerback -6.89238 3.53748 -3.02746
upperback 1.40108 4.90619 -4.35672
thorax 5.45442 2.25898 -2.29365
lowerneck -12.1241 -6.51392 -7.4959
upperneck 7.46859 -8.54552 8.09421
head 4.88942 -4.03845 3.01732
rclavicle -7.95139e-015 1.70955e-014
rhumerus -210.691 -217.4 110.348
rradius 114.494
rwrist -11.1326
rhand -13.7078 12.3804
rfingers 7.12502
rthumb 12.4108 -17.2312
lclavicle -7.95139e-015 1.70955e-014
lhumerus 0.276763 -61.8642 37.9315
lradius 94.8439
lwrist 1.02883
lhand -26.2236 -378.041
lfingers 7.12502
lthumb 0.329823 11.9383
rfemur -18.7312 -15.6538 14.994
rtibia 32.2388
rfoot 14.5612 8.78484
rtoes -0.450355
lfemur 167.991 181.475 167.852
ltibia 20.9686
lfoot 1.51405 4.8638
ltoes 13.5972
556
root 0.594028 1.72203 18.2872 -443.761 -177.591 -716.626
lowerback -7.02063 3.56857 -2.98512
upperback 1.2764 4.94298 -4.38599
thorax 5.40324 2.27847 -2.33906
lowerneck -12.6996 -6.65382 -7.55232
upperneck 7.63707 -8.7344 8.30507
head 5.0637 -4.11014 3.05523
rclavicle 9.54166e-015 -5.96354e-016
rhumerus -211.577 -216.889 110.441
rradius 115.806
rwrist -11.3289
rhand -13.921 12.4163
rfingers 7.12502
rthumb 12.2053 -17.2076
lclavicle 9.54166e-015 -5.96354e-016
lhumerus -0.248672 -61.7712 38.1533
lradius 95.4719
lwrist 1.10855
lhand -26.2398 -378.012
lfingers 7.12502
lthumb 0.314152 11.9673
rfemur -18.9227 -15.6052 15.0608
rtibia 32.224
rfoot 14.4018 8.9293
rtoes -0.974205
lfemur 167.892 181.289 167.856
ltibia 20.9912
lfoot 1.67981 4.74672
ltoes 13.6471
557
root 0.611611 1.72262 18.2804 -443.66 -177.537 -716.816
lowerback -7.14904 3.60117 -2.98268
upperback 1.15543 4.98482 -4.39586
thorax 5.35096 2.29893 -2.34136
lowerneck -13.2462 -6.80186 -7.65071
upperneck 7.82509 -8.9269 8.50124
head 5.24152 -4.18448 3.09486
rclavicle 3.65764e-014 -4.57205e-015
rhumerus -212.407 -216.432 110.598
rradius 117.029
rwrist -11.5175
rhand -14.194 12.5453
rfingers 7.12502
rthumb 11.942 -17.094
lclavicle 3.65764e-014 -4.57205e-015
lhumerus -0.896508 -61.6741 38.5759
lradius 96.1099
lwrist 1.16652
lhand -26.2215 -377.966
lfingers 7.12502
lthumb 0.331832 12.0137
rfemur -19.0991 -15.5272 15.1048
rtibia 32.2074
rfoot 14.2017 9.10475
rtoes -1.6038
lfemur 167.803 181.292 167.844
ltibia 21.0314
lfoot 1.67749 4.77937
ltoes 13.8195
558
root 0.629104 1.72296 18.2736 -443.565 -177.52 -716.98
lowerback -7.25084 3.61742 -2.95287
upperback 1.02474 5.00175 -4.38996
thorax 5.27365 2.30913 -2.3469
lowerneck -13.777 -6.9337 -7.73231
upperneck 8.06006 -9.10113 8.67465
head 5.42889 -4.24933 3.12608
rclavicle 6.36111e-015 4.57205e-015
rhumerus -213.187 -216.024 110.745
rradius 118.166
rwrist -11.6389
rhand -14.5165 12.7686
rfingers 7.12502
rthumb 11.6311 -16.8886
lclavicle 6.36111e-015 4.57205e-015
lhumerus -1.67446 -61.5703 39.1289
lradius 96.7537
lwrist 1.19672
lhand -26.1841 -377.864
lfingers 7.12502
lthumb 0.367951 12.1153
rfemur -19.2491 -15.3857 15.1788
rtibia 32.1917
rfoot 13.9687 9.16437
rtoes -2.1489
lfemur 167.702 181.092 167.87
ltibia 21.0752
lfoot 1.85565 4.63748
ltoes 13.8649
559
root 0.645909 1.72331 18.2664 -443.439 -177.484 -717.142
lowerback -7.40894 3.63222 -2.9509
upperback 0.914034 5.0231 -4.38128
thorax 5.2467 2.31965 -2.32989
lowerneck -14.3281 -7.0525 -7.79273
upperneck 8.29022 -9.25677 8.82634
head 5.61527 -4.30406 3.14824
rclavicle -2.22639e-014 2.72335e-014
rhumerus -213.865 -215.641 110.929
rradius 119.199
rwrist -11.6927
rhand -14.9104 13.0053
rfingers 7.12502
rthumb 11.2512 -16.673
lclavicle -2.22639e-014 2.72335e-014
lhumerus -2.3948 -61.4394 39.6895
lradius 97.3774
lwrist 1.23837
lhand -26.173 -377.812
lfingers 7.12502
lthumb 0.37867 12.1677
rfemur -19.4392 -15.3293 15.2457
rtibia 32.1728
rfoot 13.7895 9.30684
rtoes -2.59471
lfemur 167.56 181.006 167.875
ltibia 21.1321
lfoot 1.95722 4.57798
ltoes 13.9131
